<svg height="640pt" viewBox="-20 -20 640 640.00045" width="640pt" xmlns="http://www.w3.org/2000/svg"><path d="m489.996094 329.996094c0-33.132813-26.859375-60-60-60-33.132813 0-60 26.867187-60 60 0 33.136718 26.867187 60 60 60 33.125-.035156 59.972656-26.875 60-60zm-100 0c0-22.089844 17.910156-40 40-40 22.09375 0 40 17.910156 40 40s-17.90625 40-40 40c-22.089844 0-40-17.910156-40-40zm0 0"/><path d="m220 120h159.996094c5.527344 0 10-4.476562 10-10s-4.472656-10-10-10h-159.996094c-5.523438 0-10 4.476562-10 10s4.476562 10 10 10zm0 0"/><path d="m479.996094 140h-349.996094c-5.523438 0-10 4.476562-10 10 0 5.519531 4.476562 10 10 10h349.996094c5.527344 0 10-4.480469 10-10 0-5.523438-4.472656-10-10-10zm0 0"/><path d="m110 200h140c5.527344 0 9.996094-4.480469 9.996094-10 0-5.523438-4.46875-10-9.996094-10h-140c-5.523438 0-10 4.476562-10 10 0 5.519531 4.476562 10 10 10zm0 0"/><path d="m309.996094 200c5.527344 0 10-4.480469 10-10 0-5.523438-4.472656-10-10-10h-20c-5.519532 0-10 4.476562-10 10 0 5.519531 4.480468 10 10 10zm0 0"/><path d="m449.996094 180h-100c-5.519532 0-10 4.476562-10 10 0 5.519531 4.480468 10 10 10h100c5.527344 0 10-4.480469 10-10 0-5.523438-4.472656-10-10-10zm0 0"/><path d="m329.996094 220h-219.996094c-5.523438 0-10 4.476562-10 10 0 5.519531 4.476562 10 10 10h219.996094c5.527344 0 10-4.480469 10-10 0-5.523438-4.472656-10-10-10zm0 0"/><path d="m170 259.996094h-60c-5.523438 0-10 4.480468-10 10 0 5.523437 4.476562 10 10 10h60c5.527344 0 10-4.476563 10-10 0-5.519532-4.472656-10-10-10zm0 0"/><path d="m319.996094 259.996094h-109.996094c-5.523438 0-10 4.480468-10 10 0 5.523437 4.476562 10 10 10h109.996094c5.527344 0 10-4.476563 10-10 0-5.519532-4.472656-10-10-10zm0 0"/><path d="m299.996094 349.996094h-89.996094c-5.523438 0-10 4.480468-10 10 0 5.523437 4.476562 10 10 10h89.996094c5.527344 0 10-4.476563 10-10 0-5.519532-4.472656-10-10-10zm0 0"/><path d="m589.996094 0h-579.996094c-5.523438 0-10 4.476562-10 10v479.996094c0 5.523437 4.476562 10 10 10h369.996094v90c0 4.246094 2.683594 8.03125 6.691406 9.4375 4.007812 1.410156 8.46875.128906 11.121094-3.1875l32.1875-40.25 32.191406 40.238281c2.652344 3.316406 7.109375 4.597656 11.121094 3.195313 4.003906-1.40625 6.6875-5.1875 6.6875-9.433594v-90h110c5.527344 0 10-4.476563 10-10v-479.996094c0-5.523438-4.472656-10-10-10zm-240 329.996094c0-44.183594 35.820312-79.996094 80-79.996094 44.183594 0 80 35.8125 80 79.996094 0 44.1875-35.816406 80-80 80-44.160156-.046875-79.945313-35.839844-80-80zm130 86.46875c39.199218-22.628906 58.308594-68.761719 46.597656-112.484375-11.714844-43.714844-51.332031-74.113281-96.597656-74.113281-45.257813 0-84.875 30.398437-96.589844 74.113281-11.714844 43.722656 7.398438 89.855469 46.589844 112.484375v23.53125h-271.066406c-4.652344-24.726563-24.144532-43.972656-48.929688-48.320313v-282.507812c25.160156-4.300781 44.871094-24.007813 49.167969-49.167969h381.902343c4.652344 24.726562 24.144532 43.972656 48.925782 48.320312v282.507813c-25.15625 4.300781-44.867188 24.007813-49.167969 49.167969h-10.832031zm-42.1875 117.28125c-1.960938-2.265625-4.8125-3.566406-7.8125-3.566406-2.992188 0-5.84375 1.300781-7.808594 3.566406l-22.191406 27.738281v-136.097656c19.53125 6.148437 40.472656 6.148437 60 0v136.097656zm142.1875-53.75h-100v-20h20c5.527344 0 10-4.476563 10-10 0-22.089844 17.910156-40 40-40 5.527344 0 10-4.476563 10-10v-300.828125c0-5.519531-4.472656-10-10-10-21.769532-.121094-39.472656-17.570313-39.90625-39.339844-.09375-5.453125-4.542969-9.828125-10-9.828125h-400.089844c-5.523438 0-10 4.476562-10 10 0 22.089844-17.90625 40-40 40-5.523438 0-10 4.476562-10 10v300.828125c0 5.519531 4.476562 10 10 10 21.773438.121094 39.476562 17.570313 39.910156 39.339844.09375 5.453125 4.542969 9.828125 10 9.828125h280.085938v20h-359.996094v-459.996094h559.996094zm0 0"/></svg>