<?xml version="1.0" encoding="iso-8859-1"?>
<!-- Generator: Adobe Illustrator 19.0.0, SVG Export Plug-In . SVG Version: 6.00 Build 0)  -->
<svg version="1.1" id="Layer_1" xmlns="http://www.w3.org/2000/svg" xmlns:xlink="http://www.w3.org/1999/xlink" x="0px" y="0px"
	 viewBox="0 0 300 300" style="enable-background:new 0 0 300 300;" xml:space="preserve">
<g>
	<g>
		<g>
			<path d="M253.994,290.323l-45.929-59.71v-22.548h-6.581l-24.566-53.226h6.953v-9.677h-10.05L164.4,27.397l-9.561-14.347V0h-9.677
				v13.05L135.6,27.392l-9.421,117.769h-10.05v9.677h6.953l-24.566,53.226h-6.581v22.548l-45.929,59.71H0V300h300v-9.677H253.994z
				 M202.398,239.115l18.194,23.656l-35.618-9.716L202.398,239.115z M178.534,245.812l-5.361-8.715h16.258L178.534,245.812z
				 M170.719,164.496l16.476,35.705l-21.968-13.732L170.719,164.496z M181.515,208.065h-13.171l-2.279-9.658L181.515,208.065z
				 M145.044,30.667L150,23.24l4.955,7.432l0.256,3.198h-10.423L145.044,30.667z M144.015,43.548h11.971l8.129,101.613h-9.276
				V77.419h-9.677v67.742h-9.276L144.015,43.548z M150,172.495l8.4,35.569h-16.805L150,172.495z M140.642,170.027l-3.798-15.189
				h7.384L140.642,170.027z M155.773,154.838h7.384l-3.799,15.189L155.773,154.838z M129.276,164.497l5.497,21.972L112.8,200.202
				L129.276,164.497z M133.935,198.407l-2.279,9.658h-13.171L133.935,198.407z M101.613,217.742h96.774v9.677h-96.774V217.742z
				 M170.39,251.037c-6.382-2.734-13.302-4.263-20.39-4.263s-14.008,1.529-20.39,4.263l8.579-13.94h23.622L170.39,251.037z
				 M126.827,237.097l-5.366,8.715l-10.897-8.715H126.827z M97.602,239.115l17.424,13.94l-35.618,9.716L97.602,239.115z
				 M58.215,290.323l9.841-12.794l15.353,12.794H58.215z M77.971,273.193l32.013-8.729l-14.405,23.405L77.971,273.193z
				 M105.431,290.322l8.414-13.669c7.669-12.46,21.523-20.202,36.155-20.202s28.485,7.742,36.155,20.202l8.415,13.669H105.431z
				 M190.016,264.465l32.013,8.729l-17.608,14.676L190.016,264.465z M216.59,290.323l15.354-12.794l9.842,12.794H216.59z"/>
			<rect x="145.161" y="58.065" width="9.677" height="9.677"/>
		</g>
	</g>
</g>
<g>
</g>
<g>
</g>
<g>
</g>
<g>
</g>
<g>
</g>
<g>
</g>
<g>
</g>
<g>
</g>
<g>
</g>
<g>
</g>
<g>
</g>
<g>
</g>
<g>
</g>
<g>
</g>
<g>
</g>
</svg>
