<svg height="488pt" viewBox="0 -4 488 488" width="488pt" xmlns="http://www.w3.org/2000/svg"><path d="m300 336h80v16h-80zm0 0"/><path d="m204 336h80v16h-80zm0 0"/><path d="m108 336h80v16h-80zm0 0"/><path d="m172 48h144v16h-144zm0 0"/><path d="m412 301.601562c22.398438-2.402343 44.800781-7.203124 66.398438-13.601562l8.800781-3.199219-14.398438-28.800781h-4.800781c-2.398438 0-5.601562 0-8 0v-16h-16v14.398438c-5.601562-.796876-11.199219-1.597657-16-2.398438v-20h-16v16c-8.800781-2.398438-16.800781-6.398438-24-12v-68c30.398438-3.199219 60.800781-8.800781 90.398438-16l9.601562-2.398438-15.199219-29.601562h-4.800781v-16h-16v15.199219c-4.800781 0-10.398438-.800781-16-1.597657v-21.601562h-16v19.199219c-5.601562-.800781-10.398438-2.398438-16-3.199219v-24h-16v18.398438c-6.398438-2.398438-12-4.796876-17.601562-8l-32.796876-82.398438h-5.601562v-16h-16v16h-144v-16h-16v16h-5.601562l-32.796876 82.398438c-5.601562 3.203124-12 5.601562-17.601562 8v-18.398438h-16v23.199219c-4.800781 1.601562-10.398438 2.402343-16 4v-19.199219h-16v21.601562c-4.800781.796876-10.398438 1.597657-16 1.597657v-15.199219h-16v16h-4.800781l-15.199219 29.601562 10.398438 2.398438c30.402343 6.398438 60.800781 12 89.601562 15.199219v68.800781c-7.199219 4.800781-15.199219 8.800781-24 12v-16h-16v20c-4.800781.800781-10.398438 1.601562-16 2.398438v-14.398438h-16v16c-2.398438 0-5.601562 0-8 0h-4.800781l-14.398438 28.800781 8.800781 3.199219c21.597657 6.398438 44 11.199219 66.398438 13.601562v130.398438h-48v-16h-16v48h-8v16h480v-16h-8v-48h-16v16h-48zm-387.199219-165.601562c36 0 71.199219-8.800781 103.199219-24.800781l2.398438-1.597657 31.203124-77.601562h164.796876l31.203124 77.601562 2.398438 1.597657c35.199219 20.800781 87.199219 24.800781 103.199219 24.800781l1.601562 2.398438c-145.601562 29.601562-296 29.601562-440.800781 0zm220.800781 40.800781c42.398438 0 84.796876-2.402343 126.398438-7.199219v62.398438h-256v-62.398438c43.199219 4.796876 86.398438 7.199219 129.601562 7.199219zm-220.800781 95.199219c52-.800781 78.398438-17.601562 85.597657-24h266.402343c8 6.398438 33.597657 23.199219 85.597657 24l1.601562 3.199219c-23.199219 5.601562-94.398438 20.800781-220 20.800781s-196.800781-15.199219-220.800781-20.800781zm219.199219 40c50.398438 0 101.601562-2.398438 152-8.800781v160.800781h-16v-96h-80v96h-16v-96h-80v96h-16v-96h-80v96h-16v-160.800781c50.398438 6.402343 101.601562 8.800781 152 8.800781zm120 152h-48v-80h48zm-96 0h-48v-80h48zm-96 0h-48v-80h48zm-96 0h-16v-16h16zm-48-16h16v16h-16zm432 16h-16v-16h16zm-32-16v16h-16v-16zm0 0"/><path d="m204 200h80v16h-80zm0 0"/></svg>