<svg height="511pt" viewBox="-15 0 511 511.9983" width="511pt" xmlns="http://www.w3.org/2000/svg"><path d="m171.03125 225.101562c-4.140625 0-7.5 3.355469-7.5 7.5v13.449219c0 4.144531 3.359375 7.5 7.5 7.5 4.144531 0 7.5-3.355469 7.5-7.5v-13.449219c0-4.144531-3.355469-7.5-7.5-7.5zm0 0"/><path d="m319.6875 225.101562c-4.144531 0-7.503906 3.355469-7.503906 7.5v13.449219c0 4.144531 3.359375 7.5 7.503906 7.5 4.140625 0 7.5-3.355469 7.5-7.5v-13.449219c0-4.144531-3.359375-7.5-7.5-7.5zm0 0"/><path d="m268.640625 239.46875c-3.117187-2.726562-7.855469-2.410156-10.582031.710938-3.085938 3.527343-7.714844 5.550781-12.699219 5.550781s-9.613281-2.023438-12.699219-5.550781c-2.726562-3.121094-7.464844-3.4375-10.582031-.710938-3.121094 2.726562-3.4375 7.464844-.710937 10.582031 5.933593 6.789063 14.679687 10.679688 23.992187 10.679688s18.058594-3.890625 23.992187-10.679688c2.726563-3.117187 2.40625-7.855469-.710937-10.582031zm0 0"/><path d="m92.0625 450.375s-50.910156-12.984375-50.914062-12.984375c-7.996094-2.042969-16.234376 1.402344-23.902344 3.511719-14.671875 4.035156-21.648438 21.648437-12.90625 34.386718 3.578125 5.214844 9.222656 8.6875 15.488281 9.53125l15.683594 2.113282c.933593.125 1.824219.421875 2.644531.878906 0 0 19.988281 11.15625 19.988281 11.160156 5.089844 2.839844 11.210938 3.589844 16.835938 2.0625l18-4.878906c11.796875-3.199219 18.921875-15.433594 15.886719-27.269531-2.269532-8.855469-7.539063-16.148438-16.804688-18.511719zm-3.003906 31.300781-18.003906 4.882813c-1.890626.511718-3.878907.238281-5.597657-.6875l-19.992187-11.160156c-2.46875-1.378907-5.144532-2.269532-7.953125-2.644532l-15.683594-2.113281c-2.101563-.28125-3.917969-1.402344-5.121094-3.152344-3.011719-4.386719-.40625-10.082031 4.515625-11.4375 0 0 12.390625-3.40625 12.390625-3.40625 1.398438-.382812 2.472657-.035156 3.828125-.035156l50.914063 12.988281c2.644531.675782 4.710937 2.738282 5.390625 5.382813l.589844 2.316406c1.011718 3.933594-1.355469 8.003906-5.277344 9.066406zm0 0"/><path d="m156.246094 106.265625c5.617187 1.074219 11.484375 2.921875 17.230468 2.921875 8.160157 0 15.554688-4.832031 18.835938-12.308594 0 0 10.796875-24.617187 10.800781-24.628906 1.113281-2.535156 4.492188-4.632812 6.59375-6.472656 7.980469-6.980469 9.339844-18.753906 3.164063-27.386719-5.308594-7.425781-15.3125-10.238281-23.84375-7.269531l-34.492188 12.007812c-6.042968 2.101563-10.828125 6.988282-12.804687 13.070313-3.054688 9.402343-8.449219 19.675781-4.179688 29.523437 3.917969 9.046875 7.683594 18.707032 18.695313 20.542969zm-5.121094-30.445313 4.871094-14.984374c.535156-1.648438 1.832031-2.972657 3.46875-3.542969 0 0 34.492187-12.007813 34.496094-12.007813 2.332031-.8125 5.21875-.253906 6.710937 1.828125 1.664063 2.328125 1.304687 5.5-.839844 7.375-4.035156 3.527344-8.238281 6.683594-10.453125 11.734375 0 0-10.785156 24.585938-10.804687 24.628906-2.769531 6.320313-14.644531 1.609376-19.503907.679688-1.8125-.347656-3.332031-1.566406-4.066406-3.257812-1.542968-3.554688-5.199218-8.382813-3.878906-12.453126zm0 0"/><path d="m246.902344 134.671875c8.9375-3.828125 14.222656-13.347656 12.847656-23.144531 0 0-3.019531-21.558594-3.023438-21.566406-.386718-2.773438-1.84375-5.261719-2.1875-8.015626l-2.335937-18.761718c-.675781-5.375 2.996094-10.214844 8.351563-11.019532l64.261718-9.597656c3.125-.464844 6.105469-1.515625 8.863282-3.121094l39.597656-23.09375c1.519531-.882812 3.246094-1.351562 4.988281-1.351562h22.226563c3.484374 0 6.746093 1.859375 8.519531 4.855469l15.085937 25.496093c2.109375 3.5625 6.710938 4.742188 10.273438 2.632813 3.566406-2.109375 4.746094-6.710937 2.636718-10.273437l-15.085937-25.488282c-4.460937-7.539062-12.671875-12.222656-21.429687-12.222656h-22.230469c-4.390625 0-8.726563 1.171875-12.539063 3.394531l-39.597656 23.09375c-1.101562.640625-2.285156 1.058594-3.523438 1.242188l-64.269531 9.601562c-13.476562 2.019531-22.707031 14.195313-21.015625 27.710938 0 0 2.335938 18.757812 2.335938 18.757812.359375 2.875 1.824218 5.441407 2.21875 8.242188l3.023437 21.566406c.4375 3.113281-1.167969 6.101563-3.96875 7.304687l-56.207031 23.542969c-3.148438 1.320313-6.832031.902344-9.601562-1.082031l-10.5-7.542969c-1.746094-1.257812-3.058594-3.082031-3.6875-5.140625-2.523438-8.234375-8.242188-15.65625-15.796876-20.011718l-24.636718-14.207032c-9.269532-5.355468-20.886719-4.191406-28.933594 2.910156-6.035156 5.367188-9.582031 12.886719-8.964844 21.058594 0 0 4.4375 59.667969 4.4375 59.675782l.257813 3.515624c-.636719.578126-1.410157 1.332032-2.261719 2.34375l-22.054688 25.980469c-4.953124 5.835938-6.933593 13.484375-5.433593 20.996094l1.863281 9.296875c.488281 2.453125.039062 4.976562-1.273438 7.113281l-22.5625 36.820313c-3.824218 6.25-4.707031 13.828125-2.417968 20.789062 2.289062 6.960938 7.492187 12.535156 14.28125 15.292969l10.113281 4.109375c1.835937.742188 3.75 1.261719 5.683594 1.546875 0 0 96.324219 14.390625 96.496093 14.414063 5.554688.832031 9.394532 6.347656 8.222657 11.84375l-1.925781 9.054687c-.839844 3.964844-4.089844 7.0625-8.097657 7.710937 0 0-12.292969 2-12.3125 2-7.03125 1.144532-10.203125-4.886718-13.183593-9.996093-4.054688-6.941407-11.25-11.523438-19.25-12.246094l-49.488282-4.507813c-5.097656-.464843-10.136718.628907-14.582031 3.15625l-25.125 14.308594c-9.40625 5.351563-14.253906 16.070313-12.0625 26.679688l.847656 4.109375c2.097657 10.117187 10.027344 17.769531 20.203125 19.5l30.171875 5.136719c1.367188.230468 2.707031.769531 3.871094 1.558593l16.863281 11.398438c6.523438 4.40625 14.84375 5.464843 22.25 2.839843l18.605469-6.585937c2.195313-.777344 4.609375-.753906 6.792969.070313l27.839844 10.523437c8.683593 3.277344 18.390624 1.484375 25.339843-4.6875l24.277344-21.582031c2.597656-2.308594 4.722656-5.191406 6.148437-8.34375 0 0 4.496094-9.941406 4.507813-9.96875 3.089844-6.832032 12.667969-7.777344 17.046875-1.707032l8.203125 11.382813c1.546875 2.144531 2.179687 4.875 1.730469 7.476563l-6.425782 37.082031c-.976562 5.679687.054688 11.554687 2.890626 16.535156l16.648437 29.304687c4.050781 7.128907 11.34375 11.800782 19.5 12.5l58.148437 5.023438c9.726563.847656 19.277344-4.289062 23.949219-12.859375 7.027344-12.882813.578125-24.605469-8.640625-33.839844-3.714844-3.714843-3.878906-9.6875-.371094-13.597656l5.917969-6.601563c7.097657-7.925781 8.378907-19.488281 3.179688-28.78125-2.601563-4.652343-5.398438-9.28125-2.058594-14.457031l6.691406-10.382812c5.917969-9.164063 5.105469-21.363281-1.980469-29.664063 0 0-17.792968-21.132812-18.210937-22.191406-1.953125-4.992188.796875-8.785156 3.613281-12.542969 2.351563-3.136719 6.34375-4.585937 10.164063-3.695312 9.261719 2.160156 18.539062 5.542969 27.832031 1.644531l54.117188-22.667969c10.484374-4.398437 16.65625-15.332031 15.003906-26.585937l-1.28125-8.714844c-.554688-3.761719 1.136718-7.558594 4.304687-9.671875l10.089844-6.730469c8.554687-5.699218 12.6875-15.878906 10.53125-25.929687l-2.859375-13.320313c-2.71875-12.714844-14.933594-21.257812-27.808594-19.453125l-24.941406 3.5c-.011719 0-.835938.066407-2.730469-.964843-4.640625-2.527344-7.738281-7.539063-8.128906-13.117188.03125-.042969.050781-.082031.082031-.125l5.65625-7.992188c2.019532-2.847656 5.429688-4.433593 8.90625-4.148437l9.644532.808594c12.539062 1.039062 23.90625-7.464844 26.445312-19.78125l8.132812-39.402344c1.253907-6.082031.203126-12.375-2.957031-17.71875l-16.894531-28.550781c-2.105469-3.566406-6.707031-4.742188-10.273438-2.636719-3.5625 2.113281-4.742187 6.710937-2.632812 10.277344l16.894531 28.550781c1.257813 2.125 1.675781 4.628906 1.175781 7.050781l-8.128906 39.398438c-1.011718 4.894531-5.539062 8.277343-10.515625 7.863281l-9.644531-.808594c-8.730469-.722656-17.3125 3.269532-22.386719 10.425782l-5.355469 7.5625h-300.4375s-3.917968-52.710938-3.921874-52.738282c-.257813-3.492187 1.398437-6.464844 3.953124-8.707031 3.191407-2.8125 7.804688-3.277344 11.488282-1.148437 0 0 24.632812 14.207031 24.644531 14.214843 4.289063 2.472657 7.507813 6.710938 8.949219 11.410157 1.585937 5.171874 4.878906 9.761718 9.277344 12.925781l10.511718 7.546875c6.976563 5 16.226563 6.046875 24.136719 2.730468l56.273437-23.570312m204.503907 110.097656c-7.96875 5.316406-12.214844 14.867188-10.820313 24.335938l1.277344 8.707031c.65625 4.480469-1.796875 8.828125-5.964844 10.574219 0 0-53.996094 22.617187-54.117187 22.667968-5.355469 2.246094-13.230469-1.160156-18.621094-2.417968-9.621094-2.242188-19.65625 1.414062-25.574219 9.308594-3.84375 5.121093-6.929687 10.148437-7.253906 16.753906h-28.867188c-4.140624 0-7.5 3.355468-7.5 7.5 0 4.140625 3.359376 7.5 7.5 7.5h33.007813c.550781.832031 18.304687 21.714844 18.304687 21.714844 2.8125 3.296874 3.136719 8.144531.78125 11.792968 0 0-6.683593 10.375-6.691406 10.382813-6.332031 9.828125-3.75 20.398437 1.578125 29.914062 2.066407 3.695313 1.558594 8.296875-1.261719 11.445313l-5.917968 6.597656c-8.828125 9.847656-8.417969 24.878906.929687 34.214844 4.390625 4.386718 9.707031 9.390625 6.078125 16.0625-1.871094 3.429687-5.585937 5.429687-9.484375 5.09375l-58.152343-5.027344c-3.242188-.277344-6.140626-2.132812-7.75-4.964844l-16.648438-29.3125c-1.128906-1.976562-1.535156-4.3125-1.148438-6.566406l6.425782-37.078125c1.128906-6.554687-.453125-13.410156-4.34375-18.804687 0 0-8.195313-11.371094-8.203125-11.378907-11.019531-15.296875-35.140625-12.820312-42.882813 4.296875l-4.507812 9.964844c-.5625 1.25-1.410156 2.394531-2.445313 3.316406l-24.273437 21.582032c-2.765625 2.453124-6.625 3.167968-10.078125 1.863281l-27.84375-10.519531c-5.503907-2.078126-11.582031-2.136719-17.101563-.175782l-18.605468 6.582032c-2.941407 1.046874-6.25.621093-8.84375-1.128907l-16.855469-11.394531c-2.96875-2.011719-6.261719-3.332031-9.765625-3.921875l-30.164063-5.136719c-4.042969-.6875-7.195312-3.730468-8.027343-7.75l-.847657-4.105468c-.871093-4.21875 1.050781-8.480469 4.792969-10.605469l25.125-14.3125c1.765625-1.003907 3.773438-1.4375 5.796875-1.253907 0 0 49.398437 4.5 49.496094 4.507813 5.691406.519531 8.140625 5.714844 10.691406 10.082031 5.15625 8.824219 15.394531 13.660156 25.496094 12.03125l12.316406-2.003906c10.070313-1.628906 18.257813-9.425781 20.367187-19.398438l1.925782-9.046874c.535156-2.5.667968-5.050782.425781-7.558594h88.304687c4.140626 0 7.5-3.359375 7.5-7.5 0-4.144532-3.359374-7.5-7.5-7.5h-95.261718c-3.769532-3.859375-8.746094-6.4375-14.144532-7.246094l-96.511718-14.414062c-.769532-.113282-1.53125-.324219-2.253906-.613282l-10.101563-4.105468c-2.695313-1.097657-4.765625-3.3125-5.675781-6.078126-.910156-2.769531-.558594-5.785156.960937-8.269531l22.558594-36.816406c3.292969-5.363281 4.425781-11.714844 3.195313-17.894531l-1.863282-9.296875c-.597656-2.984375.191406-6.027344 2.160156-8.347657l22.0625-25.992187c.519532-.609375.925782-.960937 1.445313-1.40625 2.238281-1.921875 3.800781-3.941406 4.28125-7.210937h297.292969c1.953125 8.714843 7.496094 16.304687 15.230468 20.515624 4.199219 2.285157 8.230469 3.175782 11.988282 2.648438l24.941406-3.5c5.125-.71875 9.972656 2.679688 11.054688 7.738281l2.863281 13.328125c.855469 3.992188-.789063 8.035156-4.191407 10.304688zm0 0"/></svg>