<?xml version="1.0" encoding="iso-8859-1"?>
<!-- Generator: Adobe Illustrator 19.0.0, SVG Export Plug-In . SVG Version: 6.00 Build 0)  -->
<svg version="1.1" id="Layer_1" xmlns="http://www.w3.org/2000/svg" xmlns:xlink="http://www.w3.org/1999/xlink" x="0px" y="0px"
	 viewBox="0 0 452 452" style="enable-background:new 0 0 452 452;" xml:space="preserve">
<g>
	<g>
		<path d="M317.236,71.788l-24-64C291.48,3.104,287,0,282,0H162c-5.004,0-9.48,3.104-11.236,7.788l-24,64
			c-1.38,3.684-0.872,7.812,1.372,11.048C130.38,86.072,134.064,88,138,88h168c3.936,0,7.62-1.928,9.864-5.164
			C318.104,79.6,318.616,75.472,317.236,71.788z M155.316,64l15-40h103.368l15,40H155.316z"/>
	</g>
</g>
<g>
	<g>
		<path d="M315.936,373.272C313.704,369.976,309.984,368,306,368H138c-3.984,0-7.708,1.976-9.94,5.272
			c-2.232,3.296-2.684,7.484-1.204,11.184l24,60C152.68,449.012,157.092,452,162,452h120c4.904,0,9.32-2.988,11.14-7.544l24-60
			C318.62,380.756,318.168,376.568,315.936,373.272z M273.876,428H170.124l-14.4-36h132.552L273.876,428z"/>
	</g>
</g>
<g>
	<g>
		<path d="M314,72H138c-37.496,0-68,30.504-68,68v176c0,37.496,30.504,68,68,68h176c37.496,0,68-30.504,68-68V140
			C382,102.504,351.496,72,314,72z M366,316c0,28.672-23.328,52-52,52H138c-28.676,0-52-23.328-52-52V140c0-28.676,23.324-52,52-52
			h176c28.672,0,52,23.324,52,52V316z"/>
	</g>
</g>
<g>
	<g>
		<path d="M314,64c-6.628,0-12,5.372-12,12s5.372,12,12,12c25.572,0,48,24.3,48,52v176c0,27.7-22.428,52-48,52
			c-6.628,0-12,5.372-12,12s5.372,12,12,12c39.024,0,72-34.804,72-76V140C386,98.804,353.028,64,314,64z"/>
	</g>
</g>
<g>
	<g>
		<path d="M138,368c-25.572,0-48-24.3-48-52V140c0-27.7,22.428-52,48-52c6.628,0,12-5.372,12-12s-5.372-12-12-12
			c-39.028,0-72,34.804-72,76v176c0,41.196,32.972,76,72,76c6.624,0,12-5.372,12-12S144.628,368,138,368z"/>
	</g>
</g>
<g>
	<g>
		<path d="M326,120H126c-4.42,0-8,3.584-8,8v200c0,4.416,3.58,8,8,8h200c4.416,0,8-3.584,8-8V128C334,123.584,330.416,120,326,120z
			 M318,320H134V136h184V320z"/>
	</g>
</g>
<g>
	<g>
		<path d="M322,200h-26.72l-12.928-16.868c-1.72-2.244-4.492-3.384-7.3-3.08c-2.804,0.336-5.224,2.128-6.368,4.712L254.6,216.608
			l-16.912-58.82c-0.956-3.324-3.94-5.656-7.396-5.784c-3.512-0.12-6.604,1.98-7.8,5.228L205.256,204H138c-4.42,0-8,3.584-8,8
			s3.58,8,8,8h72.832c3.352,0,6.348-2.088,7.504-5.232l10.72-29.084l16.252,56.528c0.932,3.232,3.784,5.536,7.144,5.768
			c0.184,0.012,0.368,0.02,0.548,0.02c3.148,0,6.028-1.856,7.316-4.764l17.544-39.66l7.124,9.292
			c1.516,1.976,3.86,3.132,6.348,3.132H322c4.416,0,8-3.584,8-8S326.416,200,322,200z"/>
	</g>
</g>
<g>
	<g>
		<path d="M214.972,246.92c-4.464-4.464-10.4-6.92-16.716-6.92c-5.236,0-10.216,1.692-14.312,4.82
			c-4.092-3.128-9.072-4.82-14.312-4.82c-6.312,0-12.248,2.456-16.716,6.924c-9.212,9.216-9.212,24.208,0.004,33.432l25.364,25.364
			c1.504,1.5,3.536,2.344,5.66,2.344c2.124,0,4.16-0.844,5.66-2.348l25.372-25.368C224.184,271.132,224.184,256.14,214.972,246.92z
			 M203.66,269.036l-19.716,19.712l-19.712-19.708c-2.976-2.976-2.976-7.828,0-10.804c1.444-1.444,3.36-2.236,5.4-2.236
			c2.044,0,3.96,0.792,5.4,2.24l3.256,3.252c3.124,3.116,8.192,3.12,11.312-0.004l3.256-3.252c2.884-2.888,7.916-2.884,10.8,0
			C206.632,261.212,206.632,266.064,203.66,269.036z"/>
	</g>
</g>
<g>
	<g>
		<path d="M264.68,260.596C263.2,258.352,260.688,257,258,257h-20c-4.42,0-8,3.584-8,8c0,4.416,3.58,8,8,8h7.864l-10.22,23.848
			c-1.74,4.064,0.14,8.764,4.204,10.504c1.028,0.44,2.096,0.652,3.148,0.652c3.104-0.004,6.056-1.82,7.36-4.852l15-35
			C266.412,265.68,266.16,262.84,264.68,260.596z"/>
	</g>
</g>
<g>
	<g>
		<path d="M288,256.668c-9.924,0-18,7.176-18,16v18.664c0,8.824,8.076,16,18,16s18-7.176,18-16v-18.664
			C306,263.844,297.924,256.668,288,256.668z M290,290.8c-0.332,0.236-1.028,0.532-2,0.532s-1.672-0.296-2-0.532v-17.6
			c0.328-0.236,1.028-0.532,2-0.532s1.668,0.296,2,0.532V290.8z"/>
	</g>
</g>
<g>
	<g>
		<path d="M262,36h-80c-4.42,0-8,3.584-8,8s3.58,8,8,8h80c4.416,0,8-3.584,8-8S266.416,36,262,36z"/>
	</g>
</g>
<g>
	<g>
		<path d="M262,400h-80c-4.42,0-8,3.584-8,8c0,4.416,3.58,8,8,8h80c4.416,0,8-3.584,8-8C270,403.584,266.416,400,262,400z"/>
	</g>
</g>
<g>
</g>
<g>
</g>
<g>
</g>
<g>
</g>
<g>
</g>
<g>
</g>
<g>
</g>
<g>
</g>
<g>
</g>
<g>
</g>
<g>
</g>
<g>
</g>
<g>
</g>
<g>
</g>
<g>
</g>
</svg>
