<?xml version="1.0" encoding="iso-8859-1"?>
<!-- Generator: Adobe Illustrator 19.0.0, SVG Export Plug-In . SVG Version: 6.00 Build 0)  -->
<svg version="1.1" id="Capa_1" xmlns="http://www.w3.org/2000/svg" xmlns:xlink="http://www.w3.org/1999/xlink" x="0px" y="0px"
	 viewBox="0 0 496 496" style="enable-background:new 0 0 496 496;" xml:space="preserve">
<g>
	<g>
		<g>
			<path d="M64,72v-0.208C73.656,64.488,80,53.016,80,40C80,17.944,62.056,0,40,0C17.944,0,0,17.944,0,40
				c0,13.016,6.344,24.488,16,31.792V496h16V79.192C34.584,79.72,37.264,80,40,80s5.416-0.28,8-0.808V496h16v-72h424h8V72H64z
				 M40,64c-13.232,0-24-10.768-24-24s10.768-24,24-24s24,10.768,24,24S53.232,64,40,64z M480,408H64V88h416V408z"/>
			<rect x="103.994" y="90.747" transform="matrix(0.7071 0.7071 -0.7071 0.7071 128.9706 -39.3578)" width="16" height="90.511"/>
			
				<rect x="90.744" y="152.002" transform="matrix(-0.7071 0.7071 -0.7071 -0.7071 345.3039 176.9753)" width="90.511" height="16"/>
			
				<rect x="114.74" y="176.002" transform="matrix(-0.7071 0.7071 -0.7071 -0.7071 403.2396 200.9775)" width="90.511" height="16"/>
			
				<rect x="444.001" y="139.033" transform="matrix(-0.7071 0.7071 -0.7071 -0.7071 881.9267 -53.2956)" width="16" height="33.944"/>
			
				<rect x="403.007" y="116.005" transform="matrix(0.7071 0.7071 -0.7071 0.7071 210.6934 -260.6493)" width="33.944" height="16"/>
			
				<rect x="387.029" y="196.023" transform="matrix(-0.7071 -0.7071 0.7071 -0.7071 545.4073 633.9608)" width="33.944" height="16"/>
			
				<rect x="355.023" y="164.023" transform="matrix(0.7071 0.7071 -0.7071 0.7071 230.5933 -212.6557)" width="33.944" height="16"/>
			
				<rect x="372.397" y="155.996" transform="matrix(0.7071 0.7071 -0.7071 0.7071 236.6327 -243.2892)" width="79.191" height="16"/>
			<rect x="131.032" y="340.005" transform="matrix(-0.7071 -0.7071 0.7071 -0.7071 6.5818 698.7352)" width="33.944" height="16"/>
			
				<rect x="107.989" y="299.033" transform="matrix(0.7071 -0.7071 0.7071 0.7071 -189.4764 174.5724)" width="16" height="33.944"/>
			
				<rect x="379.033" y="339.995" transform="matrix(0.7071 -0.7071 0.7071 0.7071 -130.0824 381.9427)" width="33.944" height="16"/>
			
				<rect x="420.005" y="299.024" transform="matrix(0.7071 0.7071 -0.7071 0.7071 348.8028 -210.0917)" width="16" height="33.944"/>
			<rect x="355.036" y="315.995" transform="matrix(0.7071 -0.7071 0.7071 0.7071 -120.1403 357.945)" width="33.944" height="16"/>
			
				<rect x="396.008" y="275.025" transform="matrix(-0.7071 -0.7071 0.7071 -0.7071 483.2116 784.1455)" width="16" height="33.944"/>
			
				<rect x="412.001" y="355.023" transform="matrix(-0.7071 -0.7071 0.7071 -0.7071 453.9471 932.0204)" width="16" height="33.944"/>
			
				<rect x="444.001" y="323.024" transform="matrix(-0.7071 -0.7071 0.7071 -0.7071 531.2007 900.0233)" width="16" height="33.944"/>
			<rect x="68.402" y="347.998" transform="matrix(-0.7071 -0.7071 0.7071 -0.7071 -67.3659 684.092)" width="79.191" height="16"/>
			
				<rect x="116.402" y="300.036" transform="matrix(-0.7071 -0.7071 0.7071 -0.7071 48.4892 636.1576)" width="79.191" height="16"/>
			<path d="M176.248,252.904C178.824,303.552,220.72,344,272,344c52.936,0,96-43.064,96-96c0-1.656-0.08-3.288-0.248-4.904
				C365.176,192.448,323.28,152,272,152c-52.936,0-96,43.064-96,96C176,249.656,176.08,251.288,176.248,252.904z M352,248
				c0,44.112-35.888,80-80,80c-27.76,0-52.24-14.224-66.592-35.752c5.72,2.416,12,3.752,18.592,3.752
				c22.728,0,42.872-13.64,51.312-34.736l8.24-20.584C289.536,225.688,303.848,216,320,216C337.648,216,352,230.352,352,248z
				 M272,168c27.76,0,52.24,14.224,66.592,35.752c-5.72-2.416-12-3.752-18.592-3.752c-22.728,0-42.872,13.64-51.312,34.736
				l-8.24,20.584C254.464,270.312,240.152,280,224,280c-17.648,0-32-14.352-32-32C192,203.888,227.888,168,272,168z"/>
		</g>
	</g>
</g>
<g>
</g>
<g>
</g>
<g>
</g>
<g>
</g>
<g>
</g>
<g>
</g>
<g>
</g>
<g>
</g>
<g>
</g>
<g>
</g>
<g>
</g>
<g>
</g>
<g>
</g>
<g>
</g>
<g>
</g>
</svg>
